<svg width="24" height="24" viewBox="0 0 24 24" fill="none" xmlns="http://www.w3.org/2000/svg">
<g clip-path="url(#clip0_1317_22511)">
<path d="M19.2331 0.799805H4.76647C2.57574 0.799805 0.799805 2.62128 0.799805 4.86818V19.1314C0.799805 21.3783 2.57574 23.1998 4.76647 23.1998H19.2331C21.4239 23.1998 23.1998 21.3783 23.1998 19.1314V4.86818C23.1998 2.62128 21.4239 0.799805 19.2331 0.799805Z" fill="#00005B"/>
<path d="M9.7989 14.2019H6.3277L5.62146 16.4563C5.61185 16.4974 5.58857 16.5337 5.55565 16.559C5.52273 16.5843 5.48223 16.5971 5.44113 16.595H3.68302C3.58276 16.595 3.54769 16.5385 3.57783 16.4255L6.58318 7.5849C6.61321 7.49244 6.64329 7.40205 6.67333 7.2838C6.71268 7.07818 6.73281 6.86918 6.73343 6.65963C6.7314 6.64498 6.73272 6.63004 6.73728 6.616C6.74185 6.60196 6.74954 6.5892 6.75974 6.57873C6.76995 6.56826 6.78238 6.56037 6.79607 6.55569C6.80977 6.551 6.82433 6.54965 6.83862 6.55173H9.22787C9.29783 6.55173 9.3379 6.57742 9.3481 6.62881L12.7591 16.4409C12.7892 16.5437 12.7591 16.5951 12.669 16.595H10.7155C10.682 16.5989 10.6482 16.59 10.6205 16.5702C10.5929 16.5503 10.5732 16.5208 10.5653 16.4872L9.7989 14.2019ZM6.8687 12.301H9.24291C9.1828 12.0956 9.11266 11.8644 9.0325 11.6074C8.9522 11.3507 8.86706 11.0759 8.77707 10.7829C8.68692 10.4901 8.59676 10.1972 8.50659 9.9044C8.41644 9.61158 8.33379 9.32903 8.25862 9.05674C8.18352 8.78463 8.11591 8.53548 8.05578 8.30927H8.04074C7.95619 8.72552 7.85087 9.13704 7.72519 9.54222C7.58478 10.0046 7.44203 10.4772 7.29694 10.9601C7.15162 11.4432 7.00887 11.8901 6.8687 12.301Z" fill="#9999FF"/>
<path d="M18.2886 13.3245H15.3284C15.3646 13.6249 15.4619 13.9141 15.6139 14.1736C15.7819 14.4305 16.0196 14.6314 16.2976 14.7515C16.6743 14.9188 17.0818 15.0007 17.4922 14.9917C17.8178 14.9853 18.1422 14.9488 18.4614 14.8826C18.7469 14.843 19.0267 14.7682 19.2947 14.6598C19.3447 14.6188 19.3699 14.6444 19.3699 14.7368V16.201C19.3723 16.2409 19.3646 16.2807 19.3473 16.3166C19.3301 16.3446 19.307 16.3683 19.2797 16.3859C18.9824 16.521 18.6696 16.6165 18.3487 16.6704C17.9128 16.7543 17.4698 16.793 17.0264 16.7859C16.3149 16.7859 15.7189 16.6729 15.2382 16.4469C14.7838 16.2416 14.3824 15.9302 14.0661 15.5376C13.7707 15.1676 13.5509 14.7404 13.42 14.2815C13.2903 13.8285 13.2245 13.3588 13.2246 12.8867C13.2232 12.3712 13.3019 11.8588 13.4576 11.3686C13.6075 10.8905 13.8446 10.446 14.1563 10.0586C14.4637 9.67579 14.8482 9.36561 15.2833 9.1493C15.724 8.92847 16.245 8.84926 16.846 8.84926C17.3445 8.83633 17.8396 8.93631 18.2961 9.14207C18.68 9.30998 19.0179 9.57174 19.2804 9.90448C19.5265 10.2303 19.7148 10.5981 19.8363 10.991C19.9547 11.3697 20.0156 11.7647 20.0167 12.1624C20.0167 12.3885 20.0092 12.594 19.9941 12.7788C19.9791 12.9638 19.9666 13.0973 19.9566 13.1795C19.9527 13.2135 19.9367 13.2448 19.9118 13.2676C19.8869 13.2903 19.8547 13.3029 19.8213 13.3028C19.7612 13.3028 19.6585 13.3105 19.5133 13.326C19.368 13.3414 19.1876 13.3516 18.9723 13.3568C18.7568 13.3621 18.529 13.3245 18.2886 13.3245ZM15.3284 11.9205H17.2968C17.5373 11.9205 17.7151 11.9179 17.8303 11.9128C17.9074 11.9049 17.9818 11.8796 18.0482 11.8387V11.7462C18.0452 11.6257 18.0249 11.5063 17.9881 11.3917C17.907 11.1288 17.744 10.9004 17.5241 10.7417C17.3042 10.583 17.0396 10.5028 16.7709 10.5133C16.5181 10.4976 16.2662 10.5577 16.0461 10.6863C15.8259 10.815 15.647 11.0065 15.5312 11.2376C15.4283 11.4526 15.3598 11.6832 15.3284 11.9205Z" fill="#9999FF"/>
</g>
<defs>
<clipPath id="clip0_1317_22511">
<rect width="24" height="24" fill="white"/>
</clipPath>
</defs>
</svg>
