<svg width="24" height="24" viewBox="0 0 24 24" fill="none" xmlns="http://www.w3.org/2000/svg">
<path d="M20.7119 14.72C18.8719 13.04 19.1119 13.28 21.3519 10.32C22.7119 8.47998 23.2719 7.43998 23.1119 6.95998C22.9519 6.47998 21.9119 6.63997 21.9119 6.63997H18.5519C18.5519 6.63997 18.3119 6.63998 18.1519 6.71998C17.9919 6.79998 17.8319 7.03997 17.8319 7.03997C17.8319 7.03997 17.2719 8.47998 16.5519 9.59998C15.0319 12.16 14.4719 12.24 14.2319 12.08C13.6719 11.68 13.8319 10.64 13.8319 9.83997C13.8319 7.43997 14.2319 6.15998 13.1119 5.91998C12.7919 5.83998 12.4719 5.59998 11.6719 5.59998H10.5519C9.7519 5.59998 9.1119 5.83998 8.7119 6.07998C8.3119 6.23998 7.9919 6.79998 8.2319 6.79998C8.4719 6.79998 8.9519 6.95998 9.1919 7.35998C9.5119 7.83998 9.5119 8.87997 9.5119 8.87997C9.5119 8.87997 9.6719 11.76 9.0319 12.08C8.5519 12.32 7.9919 11.84 6.6319 9.51998C5.9119 8.31998 5.4319 7.03997 5.4319 7.03997C5.4319 7.03997 5.3519 6.79997 5.1919 6.63997C4.9519 6.47997 4.7119 6.39998 4.7119 6.39998H1.51189C1.51189 6.39998 1.03189 6.39997 0.871892 6.63997C0.711892 6.79997 0.871892 7.19998 0.871892 7.19998C0.871892 7.19998 3.3519 12.96 6.2319 15.92C8.8719 18.64 11.7519 18.32 11.7519 18.32H13.1119C13.1119 18.32 13.5119 18.32 13.7519 18.16C13.9119 17.92 13.9119 17.68 13.9119 17.68C13.9119 17.68 13.9119 15.92 14.7119 15.6C15.5119 15.36 16.6319 17.28 17.6719 18.08C18.5519 18.64 19.1919 18.56 19.1919 18.56L22.1519 18.48C22.1519 18.48 23.7519 18.4 22.9519 17.2C22.8719 17.2 22.4719 16.4 20.7119 14.72Z" fill="#83919F"/>
</svg>
