<svg width="24" height="24" viewBox="0 0 24 24" fill="none" xmlns="http://www.w3.org/2000/svg">
<path fill-rule="evenodd" clip-rule="evenodd" d="M3.04676 10.7489C9.08654 8.20867 13.114 6.534 15.1292 5.72489C20.8828 3.4147 22.0784 3.01339 22.8577 3.00014C23.029 2.99723 23.4123 3.03823 23.6605 3.23267C23.8701 3.39685 23.9278 3.61863 23.9554 3.77429C23.983 3.92995 24.0173 4.28455 23.99 4.56163C23.6782 7.7241 22.3291 15.3986 21.6427 18.9406C21.3523 20.4394 20.7804 20.9419 20.2268 20.9911C19.0237 21.098 18.1101 20.2235 16.9448 19.4861C15.1213 18.3323 14.0911 17.614 12.3211 16.488C10.2756 15.1868 11.6016 14.4716 12.7674 13.3027C13.0725 12.9969 18.3736 8.34226 18.4762 7.92001C18.489 7.86721 18.5009 7.67036 18.3798 7.56642C18.2586 7.46248 18.0798 7.49802 17.9508 7.52629C17.7679 7.56636 14.8549 9.42501 9.21172 13.1022C8.38487 13.6503 7.63593 13.9174 6.96491 13.9034C6.22516 13.888 4.80219 13.4996 3.74435 13.1677C2.44687 12.7606 1.41566 12.5453 1.50545 11.8539C1.55222 11.4937 2.06599 11.1254 3.04676 10.7489Z" fill="#83919F"/>
</svg>
