<svg width="24" height="24" viewBox="0 0 24 24" fill="none" xmlns="http://www.w3.org/2000/svg">
<path d="M22.275 7.725C22.275 7.725 22.05 6.225 21.45 5.625C20.625 4.8 19.725 4.8 19.35 4.725C16.425 4.5 12 4.5 12 4.5C12 4.5 7.575 4.5 4.65 4.725C4.275 4.8 3.375 4.8 2.55 5.625C1.95 6.3 1.725 7.725 1.725 7.725C1.725 7.725 1.5 9.45 1.5 11.175V12.825C1.5 14.55 1.725 16.275 1.725 16.275C1.725 16.275 1.95 17.775 2.55 18.375C3.375 19.2 4.425 19.2 4.875 19.275C6.525 19.425 12 19.5 12 19.5C12 19.5 16.425 19.5 19.35 19.275C19.725 19.2 20.625 19.2 21.45 18.375C22.05 17.7 22.275 16.275 22.275 16.275C22.275 16.275 22.5 14.55 22.5 12.825V11.175C22.5 9.45 22.275 7.725 22.275 7.725ZM9.825 14.775V8.775L15.525 11.775L9.825 14.775Z" fill="#83919F"/>
</svg>
