<svg width="160" height="56" viewBox="0 0 160 56" fill="none" xmlns="http://www.w3.org/2000/svg">
<path d="M37.3609 48.4998C43.4833 48.4998 48.4465 43.4742 48.4465 37.2748C48.4465 31.0754 43.4833 26.0498 37.3609 26.0498C31.2386 26.0498 26.2754 31.0754 26.2754 37.2748C26.2754 43.4742 31.2386 48.4998 37.3609 48.4998Z" fill="#A6ABAE"/>
<path d="M16.5234 42.5003C19.3732 42.5003 21.6835 40.161 21.6835 37.2753C21.6835 34.3896 19.3732 32.0503 16.5234 32.0503C13.6735 32.0503 11.3633 34.3896 11.3633 37.2753C11.3633 40.161 13.6735 42.5003 16.5234 42.5003Z" fill="#A6ABAE"/>
<path d="M37.3599 23.4002C41.3005 23.4002 44.4951 20.1655 44.4951 16.1752C44.4951 12.1849 41.3005 8.9502 37.3599 8.9502C33.4192 8.9502 30.2246 12.1849 30.2246 16.1752C30.2246 20.1655 33.4192 23.4002 37.3599 23.4002Z" fill="#A6ABAE"/>
<path d="M16.5225 25.3997C21.5541 25.3997 25.6329 21.2695 25.6329 16.1747C25.6329 11.0799 21.5541 6.94971 16.5225 6.94971C11.491 6.94971 7.41211 11.0799 7.41211 16.1747C7.41211 21.2695 11.491 25.3997 16.5225 25.3997Z" fill="#A6ABAE"/>
<path d="M77.2655 42.4389H83.0201L72.3627 13.0549H68.1887L57.5293 42.4399H63.2844L65.3198 36.8309H75.2301L77.2655 42.4399L66.9226 32.4089L70.2755 23.1689L73.6263 32.4089H66.9226L77.2655 42.4389ZM97.2857 22.3779L91.9898 36.9749L86.6964 22.3779H81.2894L88.5688 42.4389H95.4118L102.69 22.3779H97.2847H97.2857ZM104.953 22.3779H110.36V42.4389H104.953V22.3779Z" fill="#A6ABAE"/>
<path d="M107.677 20.0996C109.599 20.0996 111.158 18.5214 111.158 16.5746C111.158 14.6278 109.599 13.0496 107.677 13.0496C105.754 13.0496 104.195 14.6278 104.195 16.5746C104.195 18.5214 105.754 20.0996 107.677 20.0996Z" fill="#A6ABAE"/>
<path d="M129.452 26.7988V22.3778H122.975V16.8438H117.571V22.3778H113.295V26.7988H117.571V35.4298C117.571 39.8818 119.769 42.8533 125.383 42.8533C127.551 42.8533 129.452 42.0473 129.452 42.0473L128.795 37.7158C128.795 37.7158 127.731 38.0378 126.422 38.0378C124.818 38.0378 122.975 37.3378 122.975 35.0928V26.7983H129.452V26.7988ZM141.851 37.8533C138.836 37.8533 136.393 35.4333 136.393 32.4483C136.393 29.4658 138.836 27.0453 141.85 27.0453C144.865 27.0453 147.307 29.4663 147.307 32.4488C147.307 35.4338 144.865 37.8538 141.851 37.8538V37.8533ZM141.851 21.8658C135.99 21.8658 131.238 26.5733 131.238 32.3758C131.238 38.1808 135.99 42.8858 141.85 42.8858C147.708 42.8858 152.46 38.1808 152.46 32.3758C152.46 26.5733 147.708 21.8658 141.85 21.8658" fill="#A6ABAE"/>
</svg>
