<svg width="153" height="44" viewBox="0 0 153 44" fill="none" xmlns="http://www.w3.org/2000/svg">
<g clip-path="url(#clip0_1243_22419)">
<path d="M146.005 38.3129C149.006 38.3129 151.133 37.7732 152.717 36.611V31.3393C151.091 32.46 149.131 33.1657 146.38 33.1657C141.752 33.1657 139.835 29.5959 139.835 23.9506C139.835 18.0148 142.169 14.9846 146.422 14.9846C148.923 14.9846 151.383 15.8563 152.675 16.6864V11.2072C151.299 10.46 148.923 9.92041 145.671 9.92041C137.375 9.92041 133.081 15.8563 133.081 24.1581C133.123 33.2487 137.333 38.3129 146.005 38.3129ZM105.441 35.9053V30.6336C103.44 32.0034 100.021 33.2072 96.8947 33.2072C92.1421 33.2072 90.3495 30.9657 90.0577 26.3997H105.733V22.9959C105.733 13.4902 101.522 9.92041 95.0604 9.92041C87.1394 9.92041 83.3874 15.9393 83.3874 24.1997C83.3874 33.7053 88.0983 38.3129 96.3528 38.3129C100.48 38.3129 103.523 37.1921 105.441 35.9053ZM45.9503 10.4185V21.211H37.2789V10.4185H30.7754V37.7732H37.2789V26.3581H45.9503V37.7732H52.4539V10.4185H45.9503ZM81.7615 32.6261H78.8849V10.4185H59.9579V12.7431C59.9579 19.4261 59.5411 28.06 57.2481 32.6261H55.1637V43.9997H61.1669V37.7732H75.7165V43.9997H81.7198V32.6261H81.7615ZM126.161 37.7732H133.54L123.117 23.0374L132.289 10.4185H125.744L116.572 23.0374V10.4185H110.069V37.7732H116.572V24.3242L126.161 37.7732ZM94.8936 14.9846C98.1037 14.9846 99.1043 17.6412 99.1043 21.0864V21.6261H90.0577C90.2244 17.2676 91.8086 14.9846 94.8936 14.9846ZM72.3814 32.6261H63.2097C65.0024 28.5166 65.5026 21.0449 65.5026 16.3129V15.4827H72.3814V32.6261Z" fill="#A6ABAE"/>
<path d="M25.2221 37.7736H18.5935V5.10566H15.6335C10.2139 5.10566 7.37902 7.80377 7.37902 11.8302C7.37902 16.3962 9.33842 18.5132 13.3823 21.2113L16.7174 23.4528L7.12888 37.7736H0L8.6297 24.9887C3.66867 21.4604 0.875477 18.0151 0.875477 12.2038C0.875477 4.93962 5.96158 0 15.5918 0H25.1804V37.7736H25.2221Z" fill="#A6ABAE"/>
</g>
<defs>
<clipPath id="clip0_1243_22419">
<rect width="153" height="44" fill="white"/>
</clipPath>
</defs>
</svg>
