<svg width="126" height="47" viewBox="0 0 126 47" fill="none" xmlns="http://www.w3.org/2000/svg">
<g clip-path="url(#clip0_1243_22428)">
<path fill-rule="evenodd" clip-rule="evenodd" d="M31.2407 40.8518C35.1641 40.8518 39.4206 42.2134 44.1333 46.4389C44.6054 46.8619 45.234 46.3361 44.8212 45.8103C40.1911 39.8927 35.9085 38.7662 31.6376 37.8144C26.4122 36.6483 23.7256 33.6726 21.853 30.4061C21.4808 29.7569 21.3128 29.8714 21.2795 30.7072C21.2375 31.7279 21.3085 33.0807 21.5344 34.4114C21.323 34.4202 21.1115 34.4187 20.8972 34.4187C13.4241 34.4187 7.36447 28.2852 7.36447 20.7197C7.36447 13.1556 13.4241 7.02356 20.8986 7.02356C28.3717 7.02356 34.4313 13.1556 34.4313 20.7197C34.4313 21.2587 34.4052 21.7918 34.3444 22.3133C33.3567 22.1326 31.4116 22.112 30.0474 22.231C29.5347 22.2765 29.6071 22.5189 29.9952 22.5894C34.469 23.4075 37.5407 26.2143 38.2446 31.3064C38.2591 31.4239 38.4126 31.4577 38.472 31.3563C40.3742 28.1442 41.3762 24.4666 41.37 20.7197C41.37 9.2781 32.2039 0 20.8986 0C9.59192 0 0.425781 9.27663 0.425781 20.7197C0.425781 32.1642 9.59192 41.4423 20.8986 41.4423C23.8965 41.4423 26.8742 40.8518 31.2407 40.8518ZM32.7643 33.3289C33.6753 34.1073 33.9519 35.0341 33.4711 35.6877C33.2032 36.0461 32.7687 36.2444 32.2473 36.2444C31.7387 36.2445 31.2461 36.0636 30.8555 35.7332C30.0271 35.0003 29.7838 33.8136 30.324 33.1394C30.5354 32.875 30.8787 32.7296 31.29 32.7296C31.7896 32.7296 32.3139 32.9426 32.7643 33.3289ZM36.9672 31.349C37.1005 32.2567 36.8181 32.6327 36.5327 32.6327C36.2214 32.6327 35.8318 32.2655 35.3727 31.5385C34.9179 30.8217 34.7514 29.9992 34.9773 29.5836C35.125 29.3089 35.4364 29.1885 35.8289 29.3398C36.5892 29.6291 36.8861 30.807 36.9672 31.349ZM65.3448 26.6049L62.9841 23.7306C62.9287 23.6628 62.8935 23.5805 62.8827 23.4931C62.8719 23.4058 62.8858 23.3172 62.9229 23.2376C62.96 23.158 63.0187 23.0908 63.0921 23.0439C63.1656 22.997 63.2507 22.9723 63.3374 22.9727H68.2746C68.5092 22.2648 68.6425 21.5084 68.6425 20.7211C68.6425 17.1227 65.995 14.0192 62.3628 14.0192C58.7305 14.0192 56.083 17.1227 56.083 20.7211C56.083 24.3196 58.7305 27.3804 62.3628 27.3804C63.4634 27.3804 64.4714 27.0955 65.3462 26.6035L65.3448 26.6049ZM76.0243 31.4592C76.2807 31.747 76.0707 32.2082 75.684 32.2082H70.2964C70.1881 32.2084 70.0812 32.1844 69.9831 32.1379C69.8849 32.0915 69.7981 32.0237 69.7287 31.9394L68.8163 30.8276C66.8948 32.0914 64.653 32.7628 62.3628 32.7605C55.8035 32.7605 50.4681 27.3599 50.4681 20.7211C50.4681 14.0824 55.8035 8.68178 62.3628 8.68178C68.922 8.68178 74.2574 14.0824 74.2574 20.7211C74.2574 23.1152 73.5623 25.3448 72.3674 27.2218L76.0243 31.4592ZM125.8 9.23844H121.402C121.247 9.23883 121.099 9.30131 120.989 9.41223C120.88 9.52315 120.818 9.67348 120.818 9.83035V31.6163C120.818 31.9438 121.079 32.2082 121.402 32.2082H125.8C126.123 32.2082 126.385 31.9438 126.385 31.6163V9.82888C126.385 9.6715 126.324 9.52058 126.214 9.4093C126.104 9.29802 125.955 9.2355 125.8 9.2355V9.23844ZM118.399 9.23844H113.481C113.356 9.23795 113.234 9.27804 113.133 9.35284C113.033 9.42763 112.958 9.5332 112.921 9.6541L109.028 22.5292L104.748 9.63941C104.709 9.52182 104.634 9.41969 104.535 9.34748C104.435 9.27526 104.316 9.2366 104.193 9.23697H100.761C100.638 9.23651 100.519 9.27511 100.419 9.34732C100.319 9.41953 100.244 9.5217 100.205 9.63941L95.9266 22.5292L92.0336 9.6541C91.9964 9.53293 91.9219 9.42704 91.8211 9.35196C91.7202 9.27689 91.5982 9.23658 91.4731 9.23697H86.5533C86.4609 9.23713 86.3698 9.25943 86.2875 9.30206C86.2052 9.34468 86.134 9.40642 86.0797 9.48225C86.0255 9.55737 85.9898 9.6446 85.9757 9.73661C85.9615 9.82862 85.9694 9.92272 85.9986 10.011L93.2255 31.8087C93.3052 32.0496 93.5297 32.2112 93.7802 32.2112H97.6848C97.9368 32.2112 98.1598 32.0496 98.2394 31.8102L102.477 19.0747L106.713 31.8087C106.793 32.0496 107.017 32.2112 107.268 32.2112H111.174C111.426 32.2112 111.649 32.0496 111.729 31.8087L118.956 10.011C118.985 9.9228 118.993 9.82881 118.979 9.73685C118.965 9.64488 118.93 9.5576 118.876 9.48225C118.821 9.40631 118.75 9.34451 118.667 9.30188C118.585 9.25926 118.494 9.23702 118.401 9.23697L118.399 9.23844ZM84.1361 9.83035V31.6163C84.1361 31.9438 83.8755 32.2082 83.551 32.2082H79.1541C78.9991 32.2082 78.8505 32.1459 78.7409 32.035C78.6312 31.924 78.5694 31.7734 78.569 31.6163V9.82888C78.569 9.50134 78.8297 9.2355 79.1541 9.2355H83.551C83.874 9.2355 84.1361 9.49988 84.1361 9.82888V9.83035Z" fill="#A6ABAE"/>
</g>
<defs>
<clipPath id="clip0_1243_22428">
<rect width="126" height="47" fill="white"/>
</clipPath>
</defs>
</svg>
