<svg width="250" height="30" viewBox="0 0 250 30" fill="none" xmlns="http://www.w3.org/2000/svg">
<path fill-rule="evenodd" clip-rule="evenodd" d="M248.015 24.9126C248.047 24.8632 248.079 24.8085 248.111 24.7509C248.119 24.736 248.128 24.7212 248.136 24.7064L248.135 24.706C248.247 24.4935 248.347 24.2491 248.395 24.0767L243.358 23.3039C243.281 23.4304 243.015 23.7382 242.756 23.9775C241.675 24.9268 240.21 25.4902 238.584 25.4902C235.675 25.4902 233.355 23.6483 232.608 21.0226H248.844C248.923 20.4348 249.001 19.8078 249.001 19.2199C249.001 13.0672 244.323 8.44287 238.269 8.44287C232.176 8.44287 227.537 13.0672 227.537 19.2199C227.537 25.3727 232.294 29.9969 238.584 29.9969C242.7 29.9969 246.138 28.0083 248.015 24.9126ZM238.191 12.9497C240.903 12.9497 243.144 14.674 243.93 17.2213H232.648C233.395 14.674 235.635 12.9497 238.191 12.9497Z" fill="#1A76FF"/>
<path fill-rule="evenodd" clip-rule="evenodd" d="M220.221 29.4123H225.135V1.10107H220.221V29.4123Z" fill="#1A76FF"/>
<path fill-rule="evenodd" clip-rule="evenodd" d="M211.559 29.4121H216.473V9.03368H211.559V29.4121ZM210.891 4.09581C210.891 5.89851 212.227 7.23095 213.996 7.23095C215.804 7.23095 217.141 5.89851 217.141 4.09581C217.141 2.3323 215.804 1 213.996 1C212.227 1 210.891 2.3323 210.891 4.09581Z" fill="#1A76FF"/>
<path fill-rule="evenodd" clip-rule="evenodd" d="M176.053 29.4091H180.967V17.4172C180.967 14.9875 182.814 13.1064 185.252 13.1064C187.689 13.1064 189.497 14.9875 189.497 17.4172V29.4091H194.411V17.4172C194.411 14.9875 196.259 13.1064 198.696 13.1064C201.094 13.1064 202.942 14.9875 202.942 17.4172V29.4091H207.816V16.0064C207.816 11.6956 204.396 8.44287 199.679 8.44287C195.787 8.44287 193.9 10.6375 193.153 11.774C191.817 9.73612 189.497 8.44287 186.706 8.44287C183.601 8.44287 181.832 10.0496 180.967 11.2253V9.0307H176.053V29.4091Z" fill="#1A76FF"/>
<path fill-rule="evenodd" clip-rule="evenodd" d="M161.659 23.3348L161.66 23.3348C162.013 24.7456 163.35 25.7645 165.669 25.7645C167.478 25.7645 168.972 25.0591 168.972 23.7659C168.972 22.9429 168.303 22.3551 166.692 21.8064L162.485 20.474C159.026 19.3375 157.611 17.6524 157.611 14.7915C157.611 10.2848 161.149 8.44287 165.512 8.44287C169.737 8.44287 172.451 10.3256 173.205 13.2911H173.206C173.372 13.8991 173.429 14.6844 173.417 14.9526L168.807 15.2095C168.802 15.0302 168.753 14.6732 168.624 14.3831C168.169 13.3935 167.024 12.6753 165.158 12.6753C163.625 12.6753 162.289 13.224 162.289 14.4388C162.289 15.1834 162.839 15.6537 164.097 16.0848L168.303 17.4956C172.077 18.828 173.65 20.6699 173.65 23.6091C173.65 28.0375 169.994 29.9969 165.552 29.9969C160.783 29.9969 157.879 27.852 157.149 24.484L157.148 24.4791C157.114 24.3221 157.085 24.1629 157.06 24.001L157.061 24.0009C156.996 23.5881 156.982 23.3064 156.985 22.9728L161.587 22.7625C161.59 22.8683 161.609 23.1292 161.659 23.3348Z" fill="#1A76FF"/>
<path fill-rule="evenodd" clip-rule="evenodd" d="M133.941 19.2199C133.941 13.0672 138.58 8.44287 144.752 8.44287C150.924 8.44287 155.602 13.0672 155.602 19.2199C155.602 25.3727 150.924 29.9969 144.752 29.9969C138.58 29.9969 133.941 25.3727 133.941 19.2199ZM144.752 13.3415C141.529 13.3415 139.013 15.8888 139.013 19.2199C139.013 22.551 141.529 25.0983 144.752 25.0983C148.015 25.0983 150.492 22.551 150.492 19.2199C150.492 15.8888 148.015 13.3415 144.752 13.3415Z" fill="#1A76FF"/>
<path fill-rule="evenodd" clip-rule="evenodd" d="M130.933 24.9126C130.965 24.8632 130.997 24.8085 131.029 24.7509C131.037 24.736 131.046 24.7212 131.054 24.7064L131.053 24.706C131.165 24.4935 131.265 24.2491 131.313 24.0767L126.276 23.3039C126.199 23.4304 125.933 23.7382 125.674 23.9775C124.593 24.9268 123.128 25.4902 121.502 25.4902C118.593 25.4902 116.273 23.6483 115.526 21.0226H131.762C131.841 20.4348 131.919 19.8078 131.919 19.2199C131.919 13.0672 127.241 8.44287 121.187 8.44287C115.094 8.44287 110.455 13.0672 110.455 19.2199C110.455 25.3727 115.212 29.9969 121.502 29.9969C125.618 29.9969 129.056 28.0083 130.933 24.9126ZM121.109 12.9497C123.821 12.9497 126.062 14.674 126.848 17.2213H115.566C116.313 14.674 118.553 12.9497 121.109 12.9497Z" fill="#1A76FF"/>
<path fill-rule="evenodd" clip-rule="evenodd" d="M103.177 1.10498V10.675C101.486 9.26417 99.3634 8.4412 96.9656 8.4412C91.3046 8.4412 87.0195 13.0655 87.0195 19.2183C87.0195 25.371 91.3046 29.9953 96.9656 29.9953C99.3634 29.9953 101.486 29.1723 103.177 27.7615V29.4075H108.051V1.10498H103.177ZM103.098 19.2183C103.098 15.8872 100.7 13.3399 97.5943 13.3399C94.528 13.3399 92.0908 15.8872 92.0908 19.2183C92.0908 22.5494 94.528 25.0966 97.5943 25.0966C100.7 25.0966 103.098 22.5494 103.098 19.2183Z" fill="#1A76FF"/>
<path fill-rule="evenodd" clip-rule="evenodd" d="M79.6917 29.4083H84.6057V9.02986H79.6917V29.4083ZM79.0234 4.09202C79.0234 5.89472 80.36 7.22716 82.1291 7.22716C83.9374 7.22716 85.2739 5.89472 85.2739 4.09202C85.2739 2.32851 83.9374 0.996094 82.1291 0.996094C80.36 0.996094 79.0234 2.32851 79.0234 4.09202Z" fill="#1A76FF"/>
<path fill-rule="evenodd" clip-rule="evenodd" d="M56.7031 9.03027L65.1158 29.4087H69.7939L78.2066 9.03027H73.1354L67.4745 23.2168L61.7743 9.03027H56.7031Z" fill="#1A76FF"/>
<path fill-rule="evenodd" clip-rule="evenodd" d="M22.4909 28.2934C13.0644 28.2934 4.86056 23.4724 0 15.4622L6.4532 11.5708C10.0061 17.4259 15.815 20.7748 22.4909 20.7748C29.1667 20.7748 34.9756 17.4259 38.5285 11.5708L44.9817 15.4622C40.1211 23.4724 31.9174 28.2934 22.4909 28.2934Z" fill="#1A76FF"/>
</svg>
