<svg width="164" height="75" viewBox="0 0 164 75" fill="none" xmlns="http://www.w3.org/2000/svg">
<g clip-path="url(#clip0_1243_22430)">
<path d="M81.4916 0.0169947C86.5518 -0.0950924 91.657 1.36285 95.8194 4.24115C100.27 7.25872 103.651 11.8007 105.241 16.9171C106.858 22.0443 106.689 27.7106 104.753 32.7274C102.601 38.3873 98.2086 43.1689 92.728 45.7967C88.0764 48.0901 82.6677 48.7927 77.5741 47.827C71.9974 46.8044 66.8341 43.7325 63.2763 39.349C59.768 35.0951 57.7797 29.6053 57.8507 24.0995C57.7985 19.1097 59.431 14.1356 62.3533 10.0879C66.683 3.99359 73.9864 0.146659 81.4916 0.0169947ZM75.2432 5.90799C71.3151 7.3635 67.8734 10.1019 65.6138 13.6144C63.0397 17.5168 62.0259 22.3521 62.6475 26.9667C64.4098 23.1581 66.6355 19.4995 69.6771 16.5611C72.4917 13.6607 76.0056 11.5192 79.7099 9.93123C78.9972 9.32712 78.2874 8.72288 77.5911 8.10498C81.5684 7.38865 85.7759 7.70666 89.5352 9.22274C87.0826 11.8126 84.563 14.3747 82.5742 17.3464C82.2952 16.0714 82.0383 14.789 81.7565 13.515C78.6988 15.5586 76.5329 18.7197 75.2928 22.1356C73.5664 26.9248 73.2603 32.1874 74.2404 37.1712C76.0635 36.8914 77.8756 36.4575 79.5747 35.7326C83.5716 34.093 86.7268 30.8854 88.8117 27.1725C87.4638 27.2086 86.1185 27.3345 84.7704 27.3924C87.4331 24.5335 89.8306 21.4002 91.6294 17.9288C93.6951 21.2708 95.3723 24.8329 96.8252 28.4774C95.7425 28.1446 94.6565 27.8183 93.5626 27.5238C93.7008 32.0367 93.3222 36.5811 92.0734 40.9369C97.1452 37.9953 100.712 32.6679 101.51 26.8876C102.095 22.8394 101.338 18.6098 99.3858 15.0126C96.9798 10.4621 92.6703 6.96856 87.7181 5.50494C83.66 4.28225 79.2101 4.43058 75.2432 5.90799ZM46.0952 61.7805C46.9651 60.245 48.7116 59.3554 50.4518 59.2895C52.4354 59.1963 54.4213 59.2728 56.4076 59.2486C56.4076 60.3692 56.4076 61.4896 56.4047 62.6129C54.7001 62.6157 52.9932 62.6069 51.2861 62.61C50.5073 62.6015 49.6478 62.8046 49.1673 63.4662C48.643 64.1419 48.7473 65.0452 48.7362 65.8469C48.7694 67.1192 48.692 68.3906 48.7668 69.6622C48.8216 70.5157 49.358 71.3951 50.247 71.59C51.2529 71.7737 52.2855 71.6646 53.3027 71.62C53.2994 70.6562 53.2994 69.6917 53.3027 68.7284C52.6559 68.7232 52.0095 68.7207 51.3629 68.7178C51.3658 67.7378 51.3658 66.7544 51.3658 65.7736C53.1392 65.7709 54.91 65.7709 56.6807 65.7709C56.6665 68.5197 56.7219 71.2687 56.6528 74.0151C54.8462 75.3275 52.5392 74.9103 50.4543 74.9737C48.5176 75.0151 46.6421 73.8313 45.8444 72.0759C45.0704 70.4782 45.3305 68.6653 45.2887 66.9515C45.283 65.2101 45.1756 63.34 46.0952 61.7805ZM109.256 61.4478C110.167 60.0856 111.803 59.3583 113.418 59.287C115.404 59.1963 117.396 59.273 119.388 59.2483C119.388 60.3689 119.388 61.4893 119.385 62.6126C117.587 62.6233 115.788 62.5905 113.99 62.6203C113.12 62.6288 112.145 63.0435 111.866 63.9303C111.471 65.2601 111.725 66.6658 111.648 68.0332C111.634 69.2171 111.565 70.7655 112.775 71.43C113.877 71.8858 115.123 71.6419 116.286 71.6066C116.278 70.6455 116.28 69.6871 116.283 68.7284C115.637 68.7232 114.99 68.7203 114.343 68.7178C114.346 67.7378 114.346 66.7544 114.346 65.7736C116.12 65.7709 117.89 65.7709 119.661 65.7736C119.672 68.4898 119.65 71.2054 119.675 73.9243C117.907 75.3473 115.556 74.9103 113.462 74.9762C111.512 75.0341 109.603 73.8582 108.805 72.0898C107.999 70.4886 108.339 68.6597 108.27 66.9434C108.248 65.084 108.112 63.0435 109.256 61.4478ZM0 59.4514C1.27895 59.457 2.55804 59.4543 3.83917 59.4543C4.62689 62.7029 5.34429 65.9684 6.15934 69.2107C6.62338 65.9517 7.2143 62.7106 7.71982 59.4562C9.17013 59.4502 10.6176 59.4533 12.0678 59.4562C12.5952 62.7049 13.1286 65.9565 13.6588 69.2052C14.4157 65.9537 15.1841 62.7021 15.9517 59.4533C17.2309 59.4533 18.5126 59.4562 19.7911 59.4502C18.3711 64.5995 16.9265 69.7433 15.5206 74.8978C14.2086 74.9009 12.8991 74.9038 11.5869 74.895C11.0317 71.6683 10.4269 68.4472 9.90168 65.2144C9.34639 68.4472 8.77165 71.6738 8.1946 74.9009H4.27192C2.86472 69.7471 1.41985 64.6035 0 59.4514ZM18.524 74.9019C19.9414 69.7495 21.3776 64.6035 22.7997 59.4543H26.7444C28.1614 64.6062 29.6006 69.7495 31.0149 74.8986C29.822 74.9019 28.6279 74.8986 27.4318 74.9046C27.1943 73.85 26.9705 72.7955 26.722 71.7437C25.4382 71.7405 24.1531 71.7437 22.8658 71.7405C22.6338 72.7924 22.3932 73.8416 22.1641 74.8932C20.9523 74.9072 19.7369 74.9019 18.524 74.9019ZM23.5573 68.9975C24.3997 68.9943 25.2427 68.9975 26.0847 69.0049C25.6733 67.1458 25.2389 65.295 24.8225 63.4414C24.3997 65.2928 23.9745 67.1435 23.5573 68.9975ZM32.789 59.3856C35.2784 59.3932 37.7645 59.3661 40.2533 59.3961C41.7283 59.3683 43.2638 60.4317 43.3499 61.9725C43.3639 63.351 43.3639 64.7297 43.3472 66.1085C43.314 67.2014 42.4462 68.0368 41.499 68.4561C42.4052 70.582 43.3167 72.7054 44.2255 74.8336H40.27C39.5627 72.9111 38.8948 70.975 38.1704 69.0606C37.4798 69.0637 36.7922 69.0666 36.1044 69.0666C36.1016 70.989 36.1103 72.9139 36.0987 74.8364C34.9966 74.831 33.8944 74.831 32.7921 74.8364C32.7833 69.6838 32.789 64.5347 32.789 59.3856ZM36.1039 62.4752C36.1039 63.6668 36.101 64.8559 36.1069 66.0479C37.1065 66.0233 38.1064 66.0919 39.1039 66.0208C39.7395 65.9707 40.1098 65.3308 40.0406 64.7408C40.0184 64.0151 40.267 62.9118 39.4136 62.5686C38.3275 62.3569 37.2062 62.527 36.1039 62.4752ZM61.8848 59.457C63.1969 59.4509 64.509 59.4598 65.8239 59.4487C67.2605 64.5951 68.6916 69.7442 70.0998 74.9023H66.5171C66.2818 73.8446 66.0585 72.7871 65.8015 71.7359C64.5221 71.7495 63.2404 71.7441 61.959 71.7419C61.7323 72.7964 61.4834 73.8451 61.2601 74.9027H57.6194C59.0256 69.7494 60.4788 64.6089 61.8848 59.457ZM62.6473 69.0001C63.4896 68.9975 64.3347 68.9975 65.1771 68.9975C64.7628 67.1406 64.3264 65.2898 63.9174 63.4337C63.484 65.2869 63.0697 67.1435 62.6473 69.0001ZM71.6026 59.4543C73.0164 59.4571 74.4307 59.4459 75.8451 59.465C76.82 63.2221 77.8394 66.9669 78.8284 70.7213C79.8899 66.9759 80.8614 63.2083 81.8972 59.4564C83.2977 59.4536 84.6984 59.4536 86.1016 59.4536V74.9012H82.9249C82.9499 71.9656 82.8701 69.0322 82.8149 66.0986C82 69.0153 81.2924 71.965 80.5438 74.9012C79.3979 74.8981 78.2511 74.9147 77.1079 74.8817C76.3787 71.8721 75.6052 68.873 74.8508 65.8712C74.8371 68.8814 74.8481 71.8877 74.845 74.9009H71.5993C71.5998 69.7526 71.5969 64.6035 71.6026 59.4543ZM88.798 59.457C89.9216 59.4541 91.0485 59.4541 92.1786 59.4541V74.9017H88.7947C88.7955 69.7526 88.7955 64.6035 88.798 59.457ZM94.8746 59.457C95.9768 59.4541 97.0788 59.4509 98.1815 59.457C99.8195 62.4503 101.446 65.4467 103.098 68.4314C103.079 65.4384 103.092 62.4478 103.092 59.457C104.172 59.4541 105.252 59.4541 106.332 59.457C106.335 64.6034 106.335 69.7525 106.335 74.899C105.23 74.9019 104.128 74.9019 103.029 74.899C101.379 71.8638 99.7579 68.8162 98.1063 65.784C98.1282 68.824 98.1123 71.8615 98.1174 74.902H94.8716C94.8725 69.7526 94.8725 64.6035 94.8746 59.457ZM127.813 59.4543C128.913 59.4543 130.015 59.4571 131.114 59.4514C132.794 62.4637 134.415 65.5066 136.095 68.5193C136.109 65.4959 136.095 62.4751 136.1 59.4541C137.158 59.4541 138.216 59.4541 139.274 59.457C139.277 64.6034 139.277 69.7525 139.277 74.9017C138.166 74.8985 137.056 74.9124 135.948 74.8846C134.346 71.8227 132.667 68.8021 131.051 65.7479C131.07 68.7962 131.051 71.8469 131.062 74.898C129.979 74.9039 128.896 74.9011 127.813 74.9011C127.813 69.7526 127.811 64.6035 127.813 59.4543ZM141.765 59.457C145.077 59.4541 148.392 59.4541 151.707 59.4541C151.704 60.4594 151.704 61.4637 151.71 62.4691C149.522 62.4825 147.334 62.4691 145.147 62.4751C145.144 63.4361 145.144 64.3975 145.147 65.3585H151.083C151.086 66.3638 151.086 67.3716 151.083 68.3759C149.105 68.3792 147.127 68.3792 145.149 68.3792C145.144 69.5216 145.144 70.6668 145.149 71.812H151.704C151.707 72.8419 151.707 73.8715 151.704 74.9017H141.762C141.763 69.7526 141.76 64.6035 141.765 59.457ZM153.296 59.457C156.865 59.4509 160.431 59.457 164 59.4541V62.4751H160.412C160.406 66.5945 160.412 70.7137 160.406 74.8329H157.028C157.025 70.7163 157.022 66.5995 157.028 62.4822C155.785 62.4716 154.539 62.4716 153.296 62.4748V59.457ZM122.013 71.7437C123.092 71.7437 124.172 71.7437 125.252 71.7405C125.258 72.7924 125.258 73.8443 125.26 74.8961C124.178 74.9043 123.095 74.9021 122.012 74.9021C122.013 73.8473 122.01 72.7955 122.013 71.7437Z" fill="#A6ABAE"/>
</g>
<defs>
<clipPath id="clip0_1243_22430">
<rect width="164" height="75" fill="white"/>
</clipPath>
</defs>
</svg>
