<svg width="191" height="22" viewBox="0 0 191 22" fill="none" xmlns="http://www.w3.org/2000/svg">
<path fill-rule="evenodd" clip-rule="evenodd" d="M189.249 18.1428C189.273 18.1053 189.298 18.0639 189.322 18.0201C189.328 18.0088 189.335 17.9976 189.341 17.9864L189.34 17.9861C189.426 17.8248 189.502 17.6394 189.539 17.5087L185.695 16.9224C185.637 17.0184 185.433 17.2519 185.236 17.4334C184.411 18.1536 183.293 18.581 182.052 18.581C179.832 18.581 178.063 17.1837 177.493 15.1918H189.881C189.941 14.7459 190.001 14.2702 190.001 13.8243C190.001 9.15674 186.432 5.64868 181.812 5.64868C177.163 5.64868 173.623 9.15674 173.623 13.8243C173.623 18.4918 177.253 21.9998 182.052 21.9998C185.193 21.9998 187.817 20.4912 189.249 18.1428ZM181.752 9.06757C183.822 9.06757 185.532 10.3757 186.132 12.3081H177.523C178.093 10.3757 179.802 9.06757 181.752 9.06757Z" fill="#83919F"/>
<path fill-rule="evenodd" clip-rule="evenodd" d="M168.039 21.5575H171.789V0.0803223H168.039V21.5575Z" fill="#83919F"/>
<path fill-rule="evenodd" clip-rule="evenodd" d="M161.43 21.5579H165.179V6.09859H161.43V21.5579ZM160.92 2.35267C160.92 3.72021 161.94 4.73102 163.289 4.73102C164.669 4.73102 165.689 3.72021 165.689 2.35267C165.689 1.01485 164.669 0.00415039 163.289 0.00415039C161.94 0.00415039 160.92 1.01485 160.92 2.35267Z" fill="#83919F"/>
<path fill-rule="evenodd" clip-rule="evenodd" d="M134.338 21.553H138.087V12.4558C138.087 10.6125 139.497 9.18552 141.357 9.18552C143.217 9.18552 144.597 10.6125 144.597 12.4558V21.553H148.346V12.4558C148.346 10.6125 149.756 9.18552 151.616 9.18552C153.446 9.18552 154.856 10.6125 154.856 12.4558V21.553H158.575V11.3855C158.575 8.11525 155.966 5.64771 152.366 5.64771C149.396 5.64771 147.956 7.31256 147.386 8.17471C146.367 6.62878 144.597 5.64771 142.467 5.64771C140.097 5.64771 138.747 6.8666 138.087 7.75849V6.09364H134.338V21.553Z" fill="#83919F"/>
<path fill-rule="evenodd" clip-rule="evenodd" d="M123.354 16.9449L123.355 16.9449C123.624 18.0151 124.644 18.7881 126.414 18.7881C127.794 18.7881 128.934 18.253 128.934 17.2719C128.934 16.6476 128.424 16.2017 127.194 15.7854L123.985 14.7746C121.345 13.9125 120.265 12.6341 120.265 10.4639C120.265 7.04498 122.965 5.64771 126.294 5.64771C129.518 5.64771 131.589 7.07595 132.165 9.32565H132.165C132.292 9.78686 132.335 10.3826 132.326 10.5861L128.808 10.7809C128.805 10.6449 128.767 10.3741 128.669 10.154C128.322 9.40332 127.448 8.85849 126.024 8.85849C124.854 8.85849 123.835 9.27469 123.835 10.1963C123.835 10.7612 124.254 11.1179 125.214 11.4449L128.424 12.5152C131.304 13.526 132.504 14.9233 132.504 17.153C132.504 20.5124 129.714 21.9988 126.324 21.9988C122.686 21.9988 120.47 20.3717 119.913 17.8167L119.912 17.813C119.886 17.6939 119.864 17.5731 119.845 17.4503L119.846 17.4502C119.796 17.137 119.786 16.9233 119.787 16.6703L123.3 16.5108C123.302 16.591 123.316 16.7889 123.354 16.9449Z" fill="#83919F"/>
<path fill-rule="evenodd" clip-rule="evenodd" d="M102.205 13.8243C102.205 9.15674 105.745 5.64868 110.454 5.64868C115.164 5.64868 118.733 9.15674 118.733 13.8243C118.733 18.4918 115.164 21.9998 110.454 21.9998C105.745 21.9998 102.205 18.4918 102.205 13.8243ZM110.454 9.36485C107.995 9.36485 106.075 11.2973 106.075 13.8243C106.075 16.3513 107.995 18.2837 110.454 18.2837C112.944 18.2837 114.834 16.3513 114.834 13.8243C114.834 11.2973 112.944 9.36485 110.454 9.36485Z" fill="#83919F"/>
<path fill-rule="evenodd" clip-rule="evenodd" d="M99.9088 18.1428C99.9333 18.1053 99.9579 18.0639 99.982 18.0201C99.9886 18.0088 99.9952 17.9976 100.002 17.9864L100 17.9861C100.086 17.8248 100.162 17.6394 100.199 17.5087L96.3553 16.9224C96.2968 17.0184 96.0935 17.2519 95.8959 17.4334C95.0712 18.1536 93.9535 18.581 92.7124 18.581C90.4926 18.581 88.7228 17.1837 88.1529 15.1918H100.542C100.601 14.7459 100.662 14.2702 100.662 13.8243C100.662 9.15674 97.0919 5.64868 92.4725 5.64868C87.8228 5.64868 84.2832 9.15674 84.2832 13.8243C84.2832 18.4918 87.9128 21.9998 92.7124 21.9998C95.8532 21.9998 98.4769 20.4912 99.9088 18.1428ZM92.4124 9.06757C94.4822 9.06757 96.1919 10.3757 96.7919 12.3081H88.1829C88.7528 10.3757 90.4626 9.06757 92.4124 9.06757Z" fill="#83919F"/>
<path fill-rule="evenodd" clip-rule="evenodd" d="M78.7312 0.083252V7.34317C77.4412 6.2729 75.8214 5.64859 73.9917 5.64859C69.672 5.64859 66.4023 9.15665 66.4023 13.8242C66.4023 18.4917 69.672 21.9997 73.9917 21.9997C75.8214 21.9997 77.4412 21.3755 78.7312 20.3052V21.5538H82.4507V0.083252H78.7312ZM78.6711 13.8242C78.6711 11.2972 76.8412 9.36476 74.4715 9.36476C72.1317 9.36476 70.272 11.2972 70.272 13.8242C70.272 16.3512 72.1317 18.2836 74.4715 18.2836C76.8412 18.2836 78.6711 16.3512 78.6711 13.8242Z" fill="#83919F"/>
<path fill-rule="evenodd" clip-rule="evenodd" d="M60.8088 21.5541H64.5584V6.09475H60.8088V21.5541ZM60.2988 2.34885C60.2988 3.71639 61.3187 4.7272 62.6686 4.7272C64.0484 4.7272 65.0683 3.71639 65.0683 2.34885C65.0683 1.01103 64.0484 0.000244141 62.6686 0.000244141C61.3187 0.000244141 60.2988 1.01103 60.2988 2.34885Z" fill="#83919F"/>
<path fill-rule="evenodd" clip-rule="evenodd" d="M43.2676 6.09497L49.6869 21.5543H53.2565L59.6759 6.09497H55.8063L51.4867 16.857L47.1372 6.09497H43.2676Z" fill="#83919F"/>
<path fill-rule="evenodd" clip-rule="evenodd" d="M17.1617 20.7075C9.96883 20.7075 3.70886 17.0503 0 10.9737L4.92413 8.02161C7.63515 12.4634 12.0677 15.0039 17.1617 15.0039C22.2558 15.0039 26.6882 12.4634 29.3992 8.02161L34.3234 10.9737C30.6145 17.0503 24.3546 20.7075 17.1617 20.7075Z" fill="#83919F"/>
</svg>
