<svg width="68" height="68" viewBox="0 0 68 68" fill="none" xmlns="http://www.w3.org/2000/svg">
<g clip-path="url(#clip0_1243_22302)">
<path fill-rule="evenodd" clip-rule="evenodd" d="M23.7267 0.5H44.2733C63.0333 0.5 67.5 4.96667 67.5 23.7267V44.2733C67.5 63.0333 63.0333 67.5 44.2733 67.5H23.7267C4.96667 67.5 0.5 63.0333 0.5 44.2733V23.7267C0.5 4.96667 4.96667 0.5 23.7267 0.5Z" fill="#A6ABAE"/>
<path fill-rule="evenodd" clip-rule="evenodd" d="M55.3679 23.5822C55.6783 22.547 55.3679 21.7864 53.8905 21.7864H49.0051C47.7629 21.7864 47.1902 22.4435 46.8796 23.168C46.8796 23.168 44.3952 29.2237 40.8758 33.1573C39.7371 34.2959 39.2195 34.6582 38.5984 34.6582C38.2879 34.6582 37.8384 34.2959 37.8384 33.2608V23.5822C37.8384 22.34 37.4779 21.7864 36.4426 21.7864H28.7655C27.9892 21.7864 27.5224 22.3629 27.5224 22.9093C27.5224 24.0869 29.282 24.3585 29.4634 27.671V34.8653C29.4634 36.4426 29.1786 36.7286 28.5575 36.7286C26.9013 36.7286 22.8726 30.6459 20.4833 23.6857C20.015 22.3328 19.5453 21.7864 18.2968 21.7864H13.4113C12.0155 21.7864 11.7363 22.4435 11.7363 23.168C11.7363 24.462 13.3926 30.88 19.4482 39.3682C23.4852 45.1649 29.1731 48.3072 34.3488 48.3072C37.4543 48.3072 37.8384 47.6093 37.8384 46.4071V42.026C37.8384 40.6301 38.1326 40.3516 39.116 40.3516C39.8406 40.3516 41.0828 40.7138 43.9813 43.5088C47.2937 46.8212 47.8398 48.3072 49.703 48.3072H54.5884C55.9843 48.3072 56.6822 47.6093 56.2796 46.232C55.839 44.8593 54.2575 42.8677 52.1589 40.5068C51.0202 39.1611 49.3123 37.712 48.7946 36.9872C48.0701 36.0557 48.2771 35.6416 48.7946 34.8135C48.7946 34.8135 54.7468 26.4288 55.3679 23.5822Z" fill="#F5F5F5"/>
</g>
<defs>
<clipPath id="clip0_1243_22302">
<rect width="67" height="67" fill="white" transform="translate(0.5 0.5)"/>
</clipPath>
</defs>
</svg>
