<svg width="152" height="56" viewBox="0 0 152 56" fill="none" xmlns="http://www.w3.org/2000/svg">
<path d="M12.5916 28.2347C12.5916 30.0048 13.1076 31.4888 14.0916 32.6377C15.1227 33.7857 16.3887 34.3597 17.935 34.3597C19.4822 34.3597 20.7482 33.7857 21.733 32.6377C22.7633 31.4888 23.2793 30.0048 23.2793 28.2347C23.2793 26.4646 22.7633 24.9806 21.733 23.8326C20.7482 22.6837 19.4822 22.1097 17.935 22.1097C16.3887 22.1097 15.1227 22.6837 14.0916 23.8326C13.1076 24.9806 12.5916 26.4646 12.5916 28.2347ZM26.7482 37.0871C24.5445 39.3367 21.8256 40.4847 18.5916 40.4847C16.1539 40.4847 14.185 39.8153 12.685 38.4757V49.2417H6.0293V16.5114H12.5916C12.5916 16.5114 16.1076 15.9366 18.5916 15.9366C21.8256 15.9366 24.5445 17.0854 26.7482 19.3342C28.9511 21.5829 30.0765 24.5501 30.0765 28.2347C30.0765 31.8712 28.9511 34.8383 26.7482 37.0871Z" fill="#A6ABAE"/>
<path d="M60.3105 32.3502C61.3888 31.1541 61.951 29.7182 61.951 28.0916C61.951 24.8375 59.6539 22.2527 56.0916 22.2527C54.451 22.2527 53.0916 22.8276 52.0133 23.9756C50.935 25.1245 50.4199 26.5122 50.4199 28.0916C50.4199 29.6701 50.9822 31.106 52.0605 32.3021C53.1387 33.4982 54.4982 34.1204 56.0916 34.1204C57.8265 34.1204 59.2322 33.5464 60.3105 32.3502ZM61.951 16.511H68.6539V39.9584H61.951V38.2364C60.1699 39.7195 58.0605 40.4851 55.5765 40.4851C52.2482 40.4851 49.3887 39.3362 47.0444 36.9921C44.701 34.6471 43.5293 31.7281 43.5293 28.2342C43.5293 24.7412 44.701 21.8222 47.0444 19.4781C49.3887 17.1331 52.2482 15.937 55.5765 15.937C58.3416 15.937 61.951 16.511 61.951 16.511Z" fill="#A6ABAE"/>
<path d="M104.291 22.7791V39.958H97.6348V16.5106H111.72V22.7791H104.291Z" fill="#A6ABAE"/>
<path d="M27.0273 6.46223V12.7307H33.4508V39.959H40.1074V6.46223H27.0273Z" fill="#A6ABAE"/>
<path d="M118.525 4.91697C121.007 4.91697 122.909 6.85859 122.909 9.39259C122.909 11.819 120.901 13.814 118.525 13.814C116.148 13.814 114.193 11.819 114.193 9.39259C114.193 6.85859 116.148 4.91697 118.525 4.91697Z" fill="#A6ABAE"/>
<path d="M115.199 16.5106H121.902V39.958H115.199V16.5106Z" fill="#A6ABAE"/>
<path d="M132.297 16.5106L135.766 22.4921L139.235 16.5106H146.735L139.516 27.8996L147.25 39.958H139.797L135.766 33.3071L131.781 39.958H124.281L132.016 27.8996L124.797 16.5106H132.297Z" fill="#A6ABAE"/>
<path d="M83.0797 49.2417H76.0486L79.7986 39.9588L70.8457 16.5106H78.2514L83.408 31.0102L88.7515 16.5106H95.8769L83.0797 49.2417Z" fill="#A6ABAE"/>
</svg>
