<svg width="143" height="32" viewBox="0 0 143 32" fill="none" xmlns="http://www.w3.org/2000/svg">
<g clip-path="url(#clip0_1243_22306)">
<path fill-rule="evenodd" clip-rule="evenodd" d="M17.5697 0.584301C14.3773 0.248924 11.1591 0.907894 8.35753 2.47063C5.55591 4.03337 3.30838 6.42316 1.92386 9.31153C0.53933 12.1999 0.0857785 15.445 0.625544 18.6009C1.16531 21.7568 2.67189 24.6685 4.93821 26.9357C7.20453 29.203 10.1193 30.7146 13.282 31.2627C16.4446 31.8107 19.6998 31.3684 22.6002 29.9965C25.5006 28.6247 27.9037 26.3905 29.4793 23.6012C31.0548 20.8119 31.7255 17.6044 31.3991 14.4196C31.0399 10.8794 29.4686 7.57075 26.9497 5.05079C24.4308 2.53083 21.1182 0.953468 17.5697 0.584301ZM17.0662 24.1958C15.3492 24.4256 13.6033 24.1129 12.0737 23.3019C10.5441 22.4909 9.30773 21.2222 8.53842 19.6742C7.76911 18.1262 7.50549 16.3767 7.78462 14.6716C8.06376 12.9665 8.8716 11.3914 10.0946 10.1679C11.3177 8.94428 12.8944 8.13367 14.6032 7.84994C16.312 7.56622 18.067 7.82366 19.6215 8.58607C21.1761 9.34848 22.452 10.5775 23.27 12.1005C24.0879 13.6235 24.4069 15.3638 24.1819 17.0769C23.9458 18.8787 23.1207 20.5527 21.8344 21.8397C20.548 23.1266 18.8721 23.9548 17.0662 24.1958ZM39.7096 1.19735C39.1707 1.19863 38.6389 1.31973 38.1528 1.55181C37.6667 1.78389 37.2387 2.12113 36.8997 2.53899C36.5608 2.95684 36.3195 3.4448 36.1935 3.96735C36.0674 4.48991 36.0598 5.03391 36.1711 5.55979C36.512 7.26344 38.1076 8.4275 39.8457 8.4275H49.9325L34.2352 29.1453C34.1191 29.2982 34.048 29.4804 34.0299 29.6714C34.0118 29.8624 34.0474 30.0546 34.1327 30.2265C34.218 30.3985 34.3496 30.5433 34.5129 30.6448C34.6761 30.7463 34.8644 30.8005 35.0567 30.8012H59.6795C61.4164 30.8012 63.0132 29.6375 63.3541 27.9335C63.4654 27.4077 63.4579 26.8638 63.3319 26.3413C63.206 25.8188 62.9649 25.3309 62.6261 24.913C62.2873 24.4951 61.8594 24.1578 61.3735 23.9256C60.8876 23.6933 60.3559 23.572 59.8171 23.5705H47.5271L63.2124 2.86882C63.3296 2.71438 63.4014 2.53042 63.4196 2.33758C63.4379 2.14474 63.4019 1.95064 63.3157 1.77706C63.2295 1.60349 63.0965 1.4573 62.9316 1.3549C62.7668 1.2525 62.5766 1.19794 62.3823 1.19735H39.7096ZM138.1 1.28075C137.285 1.47407 136.561 1.93907 136.046 2.59885C135.532 3.25864 135.259 4.07371 135.272 4.90928V16.9472L115.714 1.42472C115.561 1.30329 115.376 1.22752 115.181 1.20611C114.987 1.1847 114.79 1.21852 114.614 1.3037C114.438 1.38887 114.289 1.52192 114.185 1.68755C114.082 1.85318 114.027 2.04467 114.027 2.23997V27.0957C114.014 27.9313 114.287 28.7464 114.801 29.4062C115.316 30.066 116.04 30.531 116.855 30.7243C117.385 30.8404 117.934 30.8366 118.461 30.713C118.989 30.5895 119.482 30.3494 119.904 30.0104C120.326 29.6714 120.667 29.2422 120.901 28.7545C121.134 28.2667 121.255 27.7329 121.255 27.1923V15.0502L140.813 30.573C140.966 30.6943 141.151 30.7701 141.345 30.7915C141.54 30.8128 141.737 30.779 141.913 30.6939C142.089 30.6088 142.238 30.4758 142.341 30.3102C142.445 30.1446 142.5 29.9533 142.499 29.758V4.81155C142.5 4.27111 142.379 3.73743 142.145 3.24986C141.911 2.7623 141.571 2.33327 141.149 1.99442C140.726 1.65557 140.233 1.41554 139.706 1.29202C139.178 1.16851 138.63 1.16465 138.1 1.28075ZM87.1761 7.73545C95.4488 7.73545 101.63 12.0955 101.63 15.9956C101.63 19.8957 95.4488 24.2558 87.1761 24.2558C78.9035 24.2558 72.7223 19.8957 72.7223 15.9956C72.7223 12.0955 78.9035 7.73545 87.1761 7.73545ZM87.1761 0.505585C75.2019 0.505585 65.4951 7.44077 65.4951 15.9956C65.4951 24.5505 75.2019 31.4857 87.1761 31.4857C99.1504 31.4857 108.857 24.5505 108.857 15.9956C108.857 7.44077 99.1501 0.505585 87.1761 0.505585Z" fill="#A6ABAE"/>
</g>
<defs>
<clipPath id="clip0_1243_22306">
<rect width="142" height="31" fill="white" transform="translate(0.5 0.5)"/>
</clipPath>
</defs>
</svg>
