<svg width="157" height="56" viewBox="0 0 157 56" fill="none" xmlns="http://www.w3.org/2000/svg">
<g clip-path="url(#clip0_1243_22422)">
<path d="M17.7237 0.000576019C21.4804 0.000576019 22.6609 2.73399 23.6513 5.46311C24.0673 6.62202 33.8297 33.7419 34.1233 34.5559C34.2014 34.783 34.1486 35.1558 33.8044 35.2907C33.4581 35.4235 28.3857 37.4243 28.1049 37.5314C27.824 37.6407 27.5094 37.4821 27.408 37.1972C27.3024 36.9166 25.197 31.0042 24.9605 30.3444H10.491C10.263 31.0042 8.13223 36.9295 8.0372 37.1972C7.94006 37.4693 7.63809 37.6535 7.33822 37.5314C7.03836 37.4115 1.947 35.4107 1.64292 35.2907C1.3515 35.175 1.21846 34.8387 1.31982 34.5559C1.67882 33.5406 11.2935 6.85552 11.7834 5.46311C12.7379 2.77468 13.9585 0.000576019 17.7237 0.000576019ZM0.546935 48.5272C0.242847 48.5272 0 48.7842 0 49.097V55.4357C0 55.7484 0.242847 56.0012 0.546935 56.0012H34.8856C35.196 56.0012 35.4389 55.7484 35.4389 55.4357V49.097C35.4389 48.7842 35.196 48.5272 34.8856 48.5272H0.546935ZM17.6899 8.85632L12.7991 23.7551H22.6609L17.7532 8.85632H17.6899ZM91.0784 33.2856C90.3583 33.532 89.8832 33.592 89.3173 33.592C88.1474 33.592 87.4991 33.1228 87.4991 31.9061C87.4991 30.6379 88.3227 30.2138 89.9402 30.2138C90.3351 30.2138 90.7237 30.2716 90.9053 30.3359V31.2441C90.9053 32.2231 90.9581 32.8658 91.0784 33.2856ZM95.2364 34.738C94.3727 33.4077 94.1468 32.6237 94.1468 30.9464V27.5403C94.1468 25.7066 93.9356 25.0447 93.4583 24.3763C92.7932 23.4295 91.6845 23.0182 89.6467 23.0182C88.2044 23.0182 86.8043 23.1767 85.4486 23.528L85.9385 25.9487C86.855 25.818 87.8158 25.7066 88.4937 25.7066C90.6582 25.7066 90.9053 26.0237 90.9053 27.671V28.2858C90.4238 28.1551 89.8832 28.0609 89.256 28.0609C85.9977 28.0609 84.2766 29.6782 84.2766 32.3559C84.2766 34.8666 86.1159 36.2354 88.3564 36.2354C89.1927 36.2354 90.0669 36.079 90.7596 35.792C91.1777 35.6077 91.3593 35.4985 91.8999 35.1429C92.2251 35.6227 92.8776 36.1133 93.1437 36.2054L95.2364 34.738ZM127.468 33.2856C126.743 33.532 126.277 33.592 125.706 33.592C124.532 33.592 123.876 33.1228 123.876 31.9061C123.876 30.6379 124.71 30.2138 126.331 30.2138C126.726 30.2138 127.117 30.2716 127.294 30.3359V31.2441C127.294 32.2231 127.345 32.8658 127.468 33.2856ZM131.63 34.738C130.76 33.4077 130.538 32.6237 130.538 30.9464V27.5403C130.538 25.7066 130.323 25.0447 129.841 24.3763C129.184 23.4295 128.074 23.0182 126.03 23.0182C124.589 23.0182 123.181 23.1767 121.825 23.528L122.309 25.9487C123.227 25.818 124.19 25.7066 124.887 25.7066C127.039 25.7066 127.294 26.0237 127.294 27.671V28.2858C126.813 28.1551 126.277 28.0609 125.637 28.0609C122.374 28.0609 120.647 29.6782 120.647 32.3559C120.647 34.8666 122.49 36.2354 124.741 36.2354C125.588 36.2354 126.454 36.079 127.14 35.792C127.565 35.6077 127.74 35.4985 128.281 35.1429C128.61 35.6227 129.263 36.1133 129.531 36.2054L131.63 34.738ZM157 35.9505C157 35.9505 155.213 32.0882 154.776 31.2099C154.284 30.2202 153.828 29.5368 152.823 29.2905V29.2348C153.497 29.1041 154.033 28.6907 154.62 27.4268C155.175 26.195 155.34 25.9294 155.667 25.6359C155.988 25.3446 156.428 25.4496 156.428 25.4496L156.592 23.1724C156.126 23.1082 155.608 23.106 155.074 23.136C154.187 23.1896 153.729 23.4488 153.292 23.8944C152.95 24.235 152.717 24.7448 152.43 25.3296C152.126 25.968 151.885 26.4821 151.569 27.1312C151.254 27.7974 151.106 28.0973 150.259 28.0973H149.708V18.0098H146.446V35.9505H149.708V30.7921L150.154 30.7836C151.089 30.7836 151.254 31.0214 151.748 32.0218C152.327 33.2149 153.435 35.9505 153.435 35.9505H157ZM65.0895 35.9505H68.8547L63.1594 18.3097C62.5597 18.1062 61.8185 17.9798 61.0266 17.9798C60.1629 17.9798 59.8546 18.0955 59.1788 18.3097L53.152 35.9505H56.7651C56.7651 35.9505 57.2529 34.4038 57.8273 32.4866H64.0696C64.6271 34.4017 65.0895 35.9505 65.0895 35.9505ZM58.7438 29.5283C58.7438 29.5283 59.787 25.9873 59.9496 25.4367C60.3635 24.01 60.9928 21.7436 60.9928 21.7436H61.0963C61.0963 21.7436 61.6791 24.0914 62.0592 25.411C62.2028 25.9358 63.1995 29.5283 63.1995 29.5283H58.7438ZM100.794 27.5103C99.6436 27.5103 98.7081 28.4636 98.7081 29.6311C98.7081 30.8071 99.6436 31.754 100.794 31.754C101.947 31.754 102.879 30.8071 102.879 29.6311C102.879 28.4636 101.947 27.5103 100.794 27.5103ZM73.3252 18.0098H70.0542V35.9484H73.3252V18.0098ZM138.313 25.8694C140.121 25.908 140.345 26.2872 140.345 27.8252V35.9505H143.586V27.5403C143.586 25.7066 143.375 25.0447 142.894 24.3763C142.229 23.4295 140.921 23.0182 138.71 23.0182C136.523 23.0182 135.129 23.2538 133.336 23.7958V35.9505H136.611V26.0237C137.471 25.8973 137.623 25.8694 138.313 25.8694ZM81.4152 17.6906C79.3711 17.6906 78.2582 18.1019 77.6036 19.0466C77.1221 19.7171 76.9088 20.394 76.9088 22.232V23.7958H75.2849V26.4778H76.9088V35.9505H80.1524L80.144 26.4778H83.377V23.7958H80.144L80.1524 22.3584C80.1524 20.7132 80.3995 20.394 82.5661 20.394C82.8005 20.394 83.0645 20.4069 83.3453 20.4283L83.8564 17.8513C83.056 17.7442 82.2367 17.6906 81.4152 17.6906ZM107.44 17.8577C108.553 17.7913 111.041 17.6971 112.601 17.6971C112.886 17.6971 113.182 17.6992 113.477 17.7142C116.546 17.7142 118.305 19.9806 118.305 22.6412C118.305 24.4513 117.488 25.6531 115.572 26.3686C117.825 26.8741 119.006 28.6585 119.006 30.8414C119.006 32.4438 118.56 33.7162 117.743 34.5838C116.683 35.642 115.078 36.2354 112.941 36.2354C111.041 36.2354 108.654 36.1754 107.44 36.1026V17.8577ZM112.601 20.7968C112.06 20.7968 111.391 20.8075 110.728 20.8311V25.139H112.603C113.347 25.139 113.944 24.929 114.352 24.5242C114.74 24.1428 114.943 23.603 114.943 22.9625C114.943 21.5851 114.208 20.8053 112.842 20.7968H112.601ZM112.669 33.1421H112.81C114.514 33.1421 115.557 32.2231 115.57 30.3723C115.553 29.7082 115.302 29.0955 114.852 28.6521C114.36 28.1509 113.663 27.8895 112.846 27.8895H110.728V33.1228C111.326 33.1357 111.984 33.1378 112.669 33.1421Z" fill="#A6ABAE"/>
</g>
<defs>
<clipPath id="clip0_1243_22422">
<rect width="157" height="56" fill="white"/>
</clipPath>
</defs>
</svg>
