<svg width="156" height="40" viewBox="0 0 156 40" fill="none" xmlns="http://www.w3.org/2000/svg">
<g clip-path="url(#clip0_1243_22416)">
<path fill-rule="evenodd" clip-rule="evenodd" d="M14.2809 0.501221C11.4053 0.501221 7.99587 3.29608 5.18363 7.99479C2.2525 12.861 0.503906 18.8853 0.503906 24.1169C0.503906 31.7756 4.75533 39.4992 14.2817 39.4992C23.7966 39.4992 28.0595 31.7756 28.0595 24.1169C28.0595 18.8853 26.3117 12.861 23.3947 7.99479C20.5561 3.29608 17.1471 0.501221 14.2809 0.501221ZM88.6773 11.9919H98.3218V37.4107H108.655V11.9919H118.296V2.58931H88.6773V11.9907V11.9919ZM140.34 11.9919H155.496V2.58931H140.34C126.417 2.58931 118.981 9.58782 118.981 19.9988C118.981 30.4098 126.417 37.4107 140.34 37.4107H155.496V28.0086H140.34C133.896 28.0086 129.66 25.6801 129.66 20C129.66 14.32 133.896 11.9919 140.34 11.9919ZM67.6603 2.58931L62.1532 23.3727L56.646 2.58931H38.3924V37.4107H48.7218V9.08799L56.2287 37.4107H68.0776L75.5885 9.07087V37.4107H85.9218V2.58931H67.6603Z" fill="#A6ABAE"/>
</g>
<defs>
<clipPath id="clip0_1243_22416">
<rect width="155" height="39" fill="white" transform="translate(0.5 0.5)"/>
</clipPath>
</defs>
</svg>
