<svg width="18" height="19" viewBox="0 0 18 19" fill="none" xmlns="http://www.w3.org/2000/svg">
<path d="M8.99995 2.1217C11.403 2.1217 11.6877 2.13088 12.6368 2.17418C13.5143 2.21423 13.9908 2.36081 14.3079 2.48406C14.6988 2.62834 15.0525 2.85839 15.3428 3.15731C15.6417 3.44761 15.8717 3.80121 16.016 4.19212C16.1392 4.50926 16.2859 4.9858 16.3259 5.86328C16.3692 6.81232 16.3784 7.09694 16.3784 9.50011C16.3784 11.9033 16.3692 12.1878 16.3259 13.1369C16.2858 14.0144 16.1392 14.4909 16.016 14.8081C15.8663 15.1962 15.6369 15.5487 15.3428 15.8429C15.0486 16.1371 14.6961 16.3664 14.3079 16.5162C13.9908 16.6394 13.5143 16.786 12.6368 16.826C11.6879 16.8693 11.4033 16.8785 8.99995 16.8785C6.5966 16.8785 6.31208 16.8693 5.36311 16.826C4.48563 16.786 4.00913 16.6394 3.69196 16.5162C3.30105 16.3719 2.94744 16.1418 2.65714 15.8429C2.35823 15.5526 2.12817 15.199 1.9839 14.8081C1.86064 14.491 1.71403 14.0144 1.67401 13.1369C1.63072 12.1879 1.62153 11.9033 1.62153 9.50011C1.62153 7.09694 1.63072 6.81239 1.67401 5.86328C1.71406 4.9858 1.86064 4.50929 1.9839 4.19212C2.12819 3.80119 2.35827 3.44758 2.65721 3.15727C2.94752 2.85836 3.30112 2.62831 3.69203 2.48403C4.00916 2.36078 4.4857 2.21416 5.36319 2.17415C6.31223 2.13085 6.59685 2.12167 9.00002 2.12167L8.99995 2.1217ZM9.00002 0.500061C6.55577 0.500061 6.24917 0.510421 5.28938 0.554221C4.3314 0.597948 3.6772 0.750066 3.10474 0.972563C2.50422 1.19855 1.96022 1.55281 1.51068 2.01063C1.05275 2.46015 0.698392 3.00415 0.472324 3.60469C0.250005 4.17719 0.0978872 4.83139 0.0543381 5.78936C0.0103603 6.74916 0 7.05575 0 9.5C0 11.9443 0.0103603 12.2508 0.0543381 13.2106C0.0980659 14.1686 0.250184 14.8228 0.472681 15.3953C0.698667 15.9958 1.05292 16.5398 1.51075 16.9893C1.96029 17.4472 2.50429 17.8014 3.10481 18.0274C3.67731 18.2499 4.33151 18.402 5.28945 18.4457C6.24939 18.4895 6.55587 18.4999 9.00009 18.4999C11.4443 18.4999 11.7509 18.4895 12.7107 18.4457C13.6687 18.402 14.3229 18.2499 14.8954 18.0274C15.4932 17.7962 16.0362 17.4426 16.4894 16.9893C16.9427 16.5361 17.2963 15.9931 17.5275 15.3953C17.75 14.8228 17.9021 14.1686 17.9458 13.2106C17.9896 12.2507 18 11.9442 18 9.5C18 7.05579 17.9896 6.74916 17.9458 5.78936C17.9021 4.83139 17.75 4.17719 17.5275 3.60473C17.3015 3.00421 16.9473 2.46021 16.4894 2.01067C16.0399 1.55275 15.4958 1.19842 14.8953 0.972385C14.3228 0.750066 13.6686 0.597948 12.7106 0.554399C11.7508 0.510421 11.4442 0.500061 8.99995 0.500061H9.00002Z" fill="#C76DFF"/>
<path d="M9.00051 4.87866C8.08644 4.87866 7.1929 5.14971 6.43288 5.65754C5.67287 6.16537 5.0805 6.88716 4.73071 7.73165C4.38091 8.57614 4.28939 9.50538 4.46771 10.4019C4.64604 11.2984 5.0862 12.1219 5.73254 12.7682C6.37889 13.4146 7.20238 13.8547 8.09888 14.033C8.99538 14.2114 9.92463 14.1199 10.7691 13.7701C11.6136 13.4203 12.3354 12.8279 12.8432 12.0679C13.3511 11.3079 13.6221 10.4143 13.6221 9.50026C13.6221 8.27453 13.1352 7.09901 12.2685 6.2323C11.4018 5.36558 10.2262 4.87866 9.00051 4.87866ZM9.00051 12.5002C8.40717 12.5002 7.82717 12.3243 7.33383 11.9946C6.84049 11.665 6.45599 11.1964 6.22893 10.6483C6.00188 10.1001 5.94247 9.4969 6.05823 8.91497C6.17399 8.33304 6.45971 7.7985 6.87927 7.37896C7.29882 6.95941 7.83336 6.67369 8.41529 6.55794C8.99723 6.44219 9.60042 6.5016 10.1486 6.72866C10.6968 6.95572 11.1653 7.34024 11.4949 7.83357C11.8246 8.32691 12.0005 8.90692 12.0005 9.50026C12.0005 10.2959 11.6844 11.0589 11.1218 11.6215C10.5592 12.1841 9.79615 12.5002 9.00051 12.5002Z" fill="#C76DFF"/>
<path d="M13.8046 5.77592C14.401 5.77592 14.8846 5.2924 14.8846 4.69594C14.8846 4.09949 14.401 3.61597 13.8046 3.61597C13.2081 3.61597 12.7246 4.09949 12.7246 4.69594C12.7246 5.2924 13.2081 5.77592 13.8046 5.77592Z" fill="#C76DFF"/>
</svg>
